<svg width="328" height="49" viewBox="0 0 328 49" fill="none" xmlns="http://www.w3.org/2000/svg">
<path d="M34.9 -7.15256e-07V48H27.16L26.2 45.48C23.32 47.64 20.08 48.72 16.48 48.72C13.32 48.72 10.52 48.06 8.08 46.74C5.68 45.38 3.8 43.38 2.44 40.74C1.08 38.1 0.4 34.86 0.4 31.02C0.4 24.7 2.18 20.16 5.74 17.4C9.3 14.6 14.04 13.2 19.96 13.2C21.48 13.2 22.98 13.34 24.46 13.62V-7.15256e-07H34.9ZM10.96 31.02C10.96 37.82 13.2 41.22 17.68 41.22C19.04 41.22 20.24 41.08 21.28 40.8C22.36 40.52 23.42 40.06 24.46 39.42V21.12C23.14 20.84 21.86 20.7 20.62 20.7C17.34 20.7 14.9 21.56 13.3 23.28C11.74 24.96 10.96 27.54 10.96 31.02ZM39.4187 7.2H50.2187V48H39.4187V7.2ZM86.7198 47.64C85.4398 47.92 84.2998 48.12 83.2998 48.24C82.3398 48.36 81.1998 48.42 79.8798 48.42C76.0398 48.42 73.5198 47.18 72.3198 44.7C70.6398 45.94 68.9598 46.88 67.2798 47.52C65.5998 48.16 63.7598 48.48 61.7598 48.48C59.9598 48.48 58.3398 48.1 56.8998 47.34C55.4598 46.58 54.3398 45.56 53.5398 44.28C52.7398 43 52.3398 41.6 52.3398 40.08C52.3398 37.52 52.9798 35.5 54.2598 34.02C55.5798 32.5 57.3398 31.3 59.5398 30.42C61.7398 29.5 65.0798 28.4 69.5598 27.12L71.3598 26.58V26.34C71.3598 22.66 69.6798 20.82 66.3198 20.82C64.6798 20.82 62.9198 21.18 61.0398 21.9C59.1598 22.62 56.9998 23.78 54.5598 25.38L52.5798 18.18C55.2998 16.62 58.0598 15.4 60.8598 14.52C63.6998 13.64 66.6998 13.2 69.8598 13.2C73.6998 13.2 76.6398 14.24 78.6798 16.32C80.7598 18.4 81.7998 21.96 81.7998 27V38.4C81.7998 39.28 81.9798 39.92 82.3398 40.32C82.6998 40.68 83.2798 40.86 84.0798 40.86C84.8398 40.86 85.5998 40.76 86.3598 40.56L86.7198 47.64ZM62.7798 38.7C62.7798 39.5 62.9798 40.08 63.3798 40.44C63.8198 40.8 64.4998 40.98 65.4198 40.98C67.0998 40.98 69.0798 40.26 71.3598 38.82V32.46L70.4598 32.76C67.4598 33.84 65.4198 34.8 64.3398 35.64C63.2998 36.44 62.7798 37.46 62.7798 38.7ZM106.173 13.2C110.613 13.2 113.673 14.38 115.353 16.74C117.073 19.1 117.933 22.5 117.933 26.94V48H107.493V28.26C107.493 25.46 107.153 23.52 106.473 22.44C105.833 21.36 104.573 20.82 102.693 20.82C100.653 20.82 98.5725 21.5 96.4525 22.86V48H86.0125V13.92H93.7525L94.8325 16.74C98.7525 14.38 102.533 13.2 106.173 13.2ZM122.104 7.2H132.904V48H122.104V7.2ZM147.145 48.72C144.985 48.72 142.825 48.5 140.665 48.06C138.505 47.66 136.625 47.14 135.025 46.5L137.005 39.3C140.725 40.58 144.065 41.22 147.025 41.22C150.945 41.22 152.905 40.26 152.905 38.34C152.905 37.5 152.405 36.8 151.405 36.24C150.405 35.64 148.825 34.96 146.665 34.2C144.385 33.4 142.505 32.66 141.025 31.98C139.585 31.26 138.325 30.28 137.245 29.04C136.205 27.8 135.685 26.26 135.685 24.42C135.685 20.74 137.025 17.96 139.705 16.08C142.425 14.16 146.185 13.2 150.985 13.2C152.785 13.2 154.645 13.38 156.565 13.74C158.525 14.06 160.205 14.52 161.605 15.12L159.625 22.32C156.505 21.24 153.725 20.7 151.285 20.7C147.765 20.7 146.005 21.52 146.005 23.16C146.005 24 146.465 24.68 147.385 25.2C148.305 25.72 149.805 26.32 151.885 27C154.205 27.76 156.125 28.5 157.645 29.22C159.165 29.94 160.465 30.98 161.545 32.34C162.665 33.7 163.225 35.46 163.225 37.62C163.225 41.14 161.865 43.88 159.145 45.84C156.425 47.76 152.425 48.72 147.145 48.72ZM196.693 47.64C195.413 47.92 194.273 48.12 193.273 48.24C192.313 48.36 191.173 48.42 189.853 48.42C186.013 48.42 183.493 47.18 182.293 44.7C180.613 45.94 178.933 46.88 177.253 47.52C175.573 48.16 173.733 48.48 171.733 48.48C169.933 48.48 168.313 48.1 166.873 47.34C165.433 46.58 164.313 45.56 163.513 44.28C162.713 43 162.313 41.6 162.313 40.08C162.313 37.52 162.953 35.5 164.233 34.02C165.553 32.5 167.313 31.3 169.513 30.42C171.713 29.5 175.053 28.4 179.533 27.12L181.333 26.58V26.34C181.333 22.66 179.653 20.82 176.293 20.82C174.653 20.82 172.893 21.18 171.013 21.9C169.133 22.62 166.973 23.78 164.533 25.38L162.553 18.18C165.273 16.62 168.033 15.4 170.833 14.52C173.673 13.64 176.673 13.2 179.833 13.2C183.673 13.2 186.613 14.24 188.653 16.32C190.733 18.4 191.773 21.96 191.773 27V38.4C191.773 39.28 191.953 39.92 192.313 40.32C192.673 40.68 193.253 40.86 194.053 40.86C194.813 40.86 195.573 40.76 196.333 40.56L196.693 47.64ZM172.753 38.7C172.753 39.5 172.953 40.08 173.353 40.44C173.793 40.8 174.473 40.98 175.393 40.98C177.073 40.98 179.053 40.26 181.333 38.82V32.46L180.433 32.76C177.433 33.84 175.393 34.8 174.313 35.64C173.273 36.44 172.753 37.46 172.753 38.7ZM201.686 48.36C199.966 48.36 198.486 47.74 197.246 46.5C196.006 45.26 195.386 43.78 195.386 42.06C195.386 40.3 196.006 38.82 197.246 37.62C198.486 36.38 199.966 35.76 201.686 35.76C203.446 35.76 204.926 36.38 206.126 37.62C207.366 38.82 207.986 40.3 207.986 42.06C207.986 43.78 207.366 45.26 206.126 46.5C204.926 47.74 203.446 48.36 201.686 48.36ZM226.861 48.72C222.861 48.72 219.521 47.96 216.841 46.44C214.161 44.88 212.161 42.78 210.841 40.14C209.561 37.46 208.921 34.42 208.921 31.02C208.921 27.74 209.581 24.76 210.901 22.08C212.221 19.4 214.281 17.26 217.081 15.66C219.881 14.02 223.441 13.2 227.761 13.2C229.321 13.2 231.001 13.38 232.801 13.74C234.601 14.1 236.061 14.56 237.181 15.12L235.201 22.32C232.521 21.24 230.041 20.7 227.761 20.7C225.121 20.7 223.081 21.58 221.641 23.34C220.201 25.06 219.481 27.6 219.481 30.96C219.481 34.32 220.121 36.88 221.401 38.64C222.681 40.36 224.501 41.22 226.861 41.22C228.461 41.22 229.921 40.98 231.241 40.5C232.561 40.02 234.061 39.3 235.741 38.34L238.561 44.94C237.161 46.02 235.421 46.92 233.341 47.64C231.301 48.36 229.141 48.72 226.861 48.72ZM254.267 48.72C250.347 48.72 247.047 47.96 244.367 46.44C241.687 44.92 239.667 42.82 238.307 40.14C236.987 37.46 236.327 34.42 236.327 31.02C236.327 25.62 237.847 21.3 240.887 18.06C243.967 14.82 248.427 13.2 254.267 13.2C258.107 13.2 261.367 14.02 264.047 15.66C266.767 17.26 268.807 19.4 270.167 22.08C271.527 24.76 272.207 27.7 272.207 30.9C272.207 34.1 271.527 37.06 270.167 39.78C268.807 42.46 266.767 44.62 264.047 46.26C261.367 47.9 258.107 48.72 254.267 48.72ZM254.267 41.22C256.867 41.22 258.747 40.38 259.907 38.7C261.067 37.02 261.647 34.44 261.647 30.96C261.647 27.48 261.067 24.9 259.907 23.22C258.747 21.54 256.867 20.7 254.267 20.7C251.667 20.7 249.787 21.54 248.627 23.22C247.467 24.9 246.887 27.48 246.887 30.96C246.887 34.44 247.467 37.02 248.627 38.7C249.787 40.38 251.667 41.22 254.267 41.22ZM315.331 13.2C319.771 13.2 322.831 14.38 324.511 16.74C326.231 19.1 327.091 22.5 327.091 26.94V48H316.651V28.26C316.651 25.46 316.311 23.52 315.631 22.44C314.991 21.36 313.731 20.82 311.851 20.82C309.771 20.82 307.651 21.52 305.491 22.92L305.311 22.56C305.511 23.64 305.611 25.1 305.611 26.94V48H295.171V28.26C295.171 25.46 294.831 23.52 294.151 22.44C293.511 21.36 292.251 20.82 290.371 20.82C288.331 20.82 286.251 21.5 284.131 22.86V48H273.691V13.92H281.431L282.511 16.74C286.431 14.38 290.211 13.2 293.851 13.2C298.331 13.2 301.491 14.5 303.331 17.1C307.491 14.5 311.491 13.2 315.331 13.2Z" fill="#121212"/>
</svg>
