<svg width="288" height="43" viewBox="0 0 288 43" fill="none" xmlns="http://www.w3.org/2000/svg">
<path d="M0.421875 26.9883C0.421875 22.3034 1.43359 18.612 3.45703 15.9141C5.48047 13.2161 8.30599 11.8672 11.9336 11.8672C14.5768 11.8672 16.8008 12.9062 18.6055 14.9844V0H27.8477V42H19.5625L19.0977 38.8281C17.2018 41.3073 14.7956 42.5469 11.8789 42.5469C8.36068 42.5469 5.57161 41.1979 3.51172 38.5C1.45182 35.8021 0.421875 31.9648 0.421875 26.9883ZM9.63672 27.5625C9.63672 32.8125 11.168 35.4375 14.2305 35.4375C16.2721 35.4375 17.7305 34.5807 18.6055 32.8672V21.6016C17.7669 19.8516 16.3268 18.9766 14.2852 18.9766C11.4414 18.9766 9.90104 21.2734 9.66406 25.8672L9.63672 27.5625ZM41.1247 42H31.8825V12.4141H41.1247V42ZM31.3356 4.78516C31.3356 3.47266 31.8096 2.39714 32.7575 1.55859C33.7054 0.720052 34.9359 0.300781 36.4489 0.300781C37.9619 0.300781 39.1924 0.720052 40.1403 1.55859C41.0882 2.39714 41.5622 3.47266 41.5622 4.78516C41.5622 6.09766 41.0882 7.17318 40.1403 8.01172C39.1924 8.85026 37.9619 9.26953 36.4489 9.26953C34.9359 9.26953 33.7054 8.85026 32.7575 8.01172C31.8096 7.17318 31.3356 6.09766 31.3356 4.78516ZM61.8119 42C61.4837 41.3984 61.1921 40.5143 60.9369 39.3477C59.2416 41.4805 56.8718 42.5469 53.8275 42.5469C51.0384 42.5469 48.6686 41.7083 46.7181 40.0312C44.7676 38.3359 43.7923 36.2122 43.7923 33.6602C43.7923 30.4518 44.9772 28.0273 47.347 26.3867C49.7168 24.7461 53.1621 23.9258 57.683 23.9258H60.5267V22.3672C60.5267 19.651 59.3509 18.293 56.9994 18.293C54.8119 18.293 53.7181 19.3685 53.7181 21.5195H44.5033C44.5033 18.6576 45.7155 16.3333 48.14 14.5469C50.5827 12.7604 53.6908 11.8672 57.4642 11.8672C61.2377 11.8672 64.2181 12.7878 66.4056 14.6289C68.5931 16.4701 69.7142 18.9948 69.7689 22.2031V35.3008C69.8054 38.0169 70.2246 40.0951 71.0267 41.5352V42H61.8119ZM56.0423 35.9844C57.1908 35.9844 58.1387 35.7383 58.8861 35.2461C59.6517 34.7539 60.1986 34.1979 60.5267 33.5781V28.8477H57.847C54.6387 28.8477 53.0345 30.2878 53.0345 33.168C53.0345 34.0065 53.3171 34.6901 53.8822 35.2188C54.4473 35.7292 55.1673 35.9844 56.0423 35.9844ZM81.6787 12.4141L81.9795 15.8867C84.0212 13.207 86.8376 11.8672 90.4287 11.8672C93.5095 11.8672 95.8064 12.7878 97.3194 14.6289C98.8506 16.4701 99.6436 19.2409 99.6983 22.9414V42H90.4561V23.3242C90.4561 21.8294 90.1553 20.7357 89.5537 20.043C88.9522 19.332 87.8584 18.9766 86.2725 18.9766C84.4678 18.9766 83.128 19.6875 82.253 21.1094V42H73.0381V12.4141H81.6787ZM112.866 42H103.624V12.4141H112.866V42ZM103.077 4.78516C103.077 3.47266 103.551 2.39714 104.499 1.55859C105.447 0.720052 106.677 0.300781 108.19 0.300781C109.703 0.300781 110.934 0.720052 111.882 1.55859C112.829 2.39714 113.303 3.47266 113.303 4.78516C113.303 6.09766 112.829 7.17318 111.882 8.01172C110.934 8.85026 109.703 9.26953 108.19 9.26953C106.677 9.26953 105.447 8.85026 104.499 8.01172C103.551 7.17318 103.077 6.09766 103.077 4.78516ZM132.377 33.6875C132.377 32.9036 131.967 32.2747 131.147 31.8008C130.327 31.3268 128.768 30.8346 126.471 30.3242C124.174 29.8138 122.278 29.1484 120.784 28.3281C119.289 27.4896 118.149 26.4779 117.366 25.293C116.582 24.1081 116.19 22.75 116.19 21.2188C116.19 18.5026 117.311 16.2695 119.553 14.5195C121.795 12.7513 124.73 11.8672 128.358 11.8672C132.259 11.8672 135.394 12.7513 137.764 14.5195C140.134 16.2878 141.319 18.612 141.319 21.4922H132.077C132.077 19.1224 130.828 17.9375 128.33 17.9375C127.364 17.9375 126.553 18.2109 125.897 18.7578C125.241 19.2865 124.912 19.9518 124.912 20.7539C124.912 21.5742 125.314 22.2396 126.116 22.75C126.918 23.2604 128.194 23.6797 129.944 24.0078C131.712 24.3359 133.261 24.7279 134.592 25.1836C139.04 26.7148 141.264 29.4583 141.264 33.4141C141.264 36.112 140.061 38.3086 137.655 40.0039C135.267 41.6992 132.168 42.5469 128.358 42.5469C125.824 42.5469 123.564 42.0911 121.577 41.1797C119.59 40.2682 118.04 39.0286 116.928 37.4609C115.816 35.8932 115.26 34.2435 115.26 32.5117H123.873C123.91 33.8789 124.366 34.8815 125.241 35.5195C126.116 36.1393 127.237 36.4492 128.604 36.4492C129.862 36.4492 130.801 36.194 131.42 35.6836C132.058 35.1732 132.377 34.5078 132.377 33.6875ZM160.584 42C160.256 41.3984 159.964 40.5143 159.709 39.3477C158.014 41.4805 155.644 42.5469 152.6 42.5469C149.811 42.5469 147.441 41.7083 145.49 40.0312C143.54 38.3359 142.565 36.2122 142.565 33.6602C142.565 30.4518 143.749 28.0273 146.119 26.3867C148.489 24.7461 151.934 23.9258 156.455 23.9258H159.299V22.3672C159.299 19.651 158.123 18.293 155.772 18.293C153.584 18.293 152.49 19.3685 152.49 21.5195H143.275C143.275 18.6576 144.488 16.3333 146.912 14.5469C149.355 12.7604 152.463 11.8672 156.236 11.8672C160.01 11.8672 162.99 12.7878 165.178 14.6289C167.365 16.4701 168.486 18.9948 168.541 22.2031V35.3008C168.578 38.0169 168.997 40.0951 169.799 41.5352V42H160.584ZM154.815 35.9844C155.963 35.9844 156.911 35.7383 157.658 35.2461C158.424 34.7539 158.971 34.1979 159.299 33.5781V28.8477H156.619C153.411 28.8477 151.807 30.2878 151.807 33.168C151.807 34.0065 152.089 34.6901 152.654 35.2188C153.219 35.7292 153.94 35.9844 154.815 35.9844ZM177.689 33.0586C179.148 33.0586 180.36 33.4961 181.326 34.3711C182.292 35.2279 182.775 36.3307 182.775 37.6797C182.775 39.0286 182.292 40.1406 181.326 41.0156C180.36 41.8724 179.148 42.3008 177.689 42.3008C176.213 42.3008 174.991 41.8633 174.025 40.9883C173.077 40.1133 172.603 39.0104 172.603 37.6797C172.603 36.349 173.077 35.2461 174.025 34.3711C174.991 33.4961 176.213 33.0586 177.689 33.0586ZM199.771 35.4375C201.065 35.4375 202.068 35.0911 202.779 34.3984C203.49 33.6875 203.836 32.7031 203.818 31.4453H212.458C212.458 34.6901 211.292 37.3516 208.958 39.4297C206.643 41.5078 203.654 42.5469 199.99 42.5469C195.688 42.5469 192.297 41.1979 189.818 38.5C187.339 35.8021 186.099 32.0651 186.099 27.2891V26.9062C186.099 23.9167 186.646 21.2826 187.74 19.0039C188.852 16.707 190.447 14.9479 192.525 13.7266C194.603 12.487 197.064 11.8672 199.908 11.8672C203.754 11.8672 206.807 12.9336 209.068 15.0664C211.328 17.1992 212.458 20.0885 212.458 23.7344H203.818C203.818 22.2031 203.444 21.0273 202.697 20.207C201.949 19.3867 200.947 18.9766 199.689 18.9766C197.301 18.9766 195.906 20.4987 195.505 23.543C195.378 24.5091 195.314 25.8398 195.314 27.5352C195.314 30.5065 195.669 32.5664 196.38 33.7148C197.091 34.8633 198.221 35.4375 199.771 35.4375ZM213.513 26.9336C213.513 23.9805 214.087 21.3555 215.235 19.0586C216.384 16.7435 218.034 14.9661 220.185 13.7266C222.336 12.487 224.86 11.8672 227.759 11.8672C232.189 11.8672 235.679 13.2435 238.232 15.9961C240.784 18.7305 242.06 22.4583 242.06 27.1797V27.5078C242.06 32.1198 240.775 35.7839 238.204 38.5C235.652 41.1979 232.189 42.5469 227.814 42.5469C223.603 42.5469 220.221 41.2891 217.669 38.7734C215.117 36.2396 213.741 32.8125 213.54 28.4922L213.513 26.9336ZM222.728 27.5078C222.728 30.2422 223.156 32.2474 224.013 33.5234C224.87 34.7995 226.137 35.4375 227.814 35.4375C231.095 35.4375 232.772 32.9128 232.845 27.8633V26.9336C232.845 21.6289 231.15 18.9766 227.759 18.9766C224.678 18.9766 223.01 21.2643 222.755 25.8398L222.728 27.5078ZM253.149 12.4141L253.45 15.8867C255.546 13.207 258.363 11.8672 261.899 11.8672C265.636 11.8672 268.161 13.3529 269.473 16.3242C271.479 13.3529 274.377 11.8672 278.169 11.8672C284.166 11.8672 287.247 15.4948 287.411 22.75V42H278.169V23.3242C278.169 21.8112 277.914 20.7083 277.403 20.0156C276.893 19.3229 275.963 18.9766 274.614 18.9766C272.791 18.9766 271.433 19.7878 270.54 21.4102L270.567 21.793V42H261.325V23.3789C261.325 21.8294 261.079 20.7083 260.587 20.0156C260.095 19.3229 259.156 18.9766 257.77 18.9766C256.002 18.9766 254.653 19.7878 253.723 21.4102V42H244.509V12.4141H253.149Z" fill="#262626"/>
</svg>
