<svg width="158" height="310" viewBox="0 0 158 310" fill="none" xmlns="http://www.w3.org/2000/svg">
<path d="M5.70312 165.106H39.6841V305C39.6841 307.762 41.9221 310 44.6841 310H102.3C105.062 310 107.3 307.762 107.3 305V165.765H146.364C148.904 165.765 151.041 163.859 151.331 161.336L157.264 109.834C157.427 108.417 156.978 106.998 156.03 105.935C155.081 104.871 153.723 104.262 152.298 104.262H107.302V71.978C107.302 62.246 112.542 57.311 122.878 57.311C124.351 57.311 152.298 57.311 152.298 57.311C155.06 57.311 157.298 55.072 157.298 52.311V5.037C157.298 2.275 155.06 0.037 152.298 0.037H111.753C111.467 0.023 110.832 0 109.896 0C102.861 0 78.4081 1.381 59.0921 19.151C37.6901 38.843 40.6651 62.421 41.3761 66.509V104.261H5.70312C2.94112 104.261 0.703125 106.499 0.703125 109.261V160.105C0.703125 162.867 2.94112 165.106 5.70312 165.106Z" fill="#373737"/>
</svg>
