<svg width="20" height="20" viewBox="0 0 20 20" fill="none" xmlns="http://www.w3.org/2000/svg">
<path d="M17.3158 6.24593C17.3238 6.40793 17.3268 6.57193 17.3268 6.73393C17.3268 11.7239 13.5298 17.4759 6.5868 17.4759C4.4538 17.4759 2.4708 16.8509 0.799805 15.7789C1.78818 15.8985 2.79042 15.822 3.74924 15.554C4.70806 15.286 5.60467 14.8316 6.3878 14.2169C5.60022 14.202 4.83698 13.9414 4.20478 13.4715C3.57259 13.0015 3.10305 12.3458 2.8618 11.5959C3.42787 11.7018 4.01045 11.6796 4.5668 11.5309C3.71242 11.3577 2.9442 10.8944 2.39235 10.2195C1.8405 9.54462 1.53895 8.69971 1.5388 7.82793V7.78093C2.063 8.07253 2.64927 8.2347 3.2488 8.25393C2.44868 7.72051 1.88228 6.90185 1.66522 5.96503C1.44816 5.02822 1.5968 4.04388 2.0808 3.21293C3.02859 4.37939 4.21116 5.33343 5.55168 6.01308C6.89221 6.69274 8.36071 7.0828 9.8618 7.15793C9.79686 6.87555 9.76432 6.58668 9.7648 6.29693C9.7648 5.80137 9.86243 5.31066 10.0521 4.85284C10.2418 4.39501 10.5198 3.97903 10.8702 3.62866C11.2207 3.27829 11.6368 3.0004 12.0946 2.81085C12.5525 2.62129 13.0432 2.5238 13.5388 2.52393C14.0553 2.52309 14.5664 2.62837 15.0405 2.83325C15.5146 3.03812 15.9415 3.33822 16.2948 3.71493C17.1399 3.54763 17.9505 3.23788 18.6918 2.79893C18.4099 3.67313 17.8199 4.41515 17.0318 4.88693C17.7801 4.79822 18.5108 4.59801 19.1998 4.29293C18.6937 5.05137 18.0556 5.71285 17.3158 6.24593V6.24593Z" fill="#373737"/>
</svg>
